<svg xmlns="http://www.w3.org/2000/svg" xmlns:xlink="http://www.w3.org/1999/xlink" version="1.1" id="Warstwa_1" x="0px" y="0px" style="enable-background:new 0 0 143.8 50;" xml:space="preserve" viewBox="0.1 13.8 143.4 21.9">
<style type="text/css">
	.st0{fill:#F5F5F5;}
	.st1{fill:#38D430;}
</style>
<g id="logo">
	<path class="st0" d="M63.6,18.1h4.5c0.3,0,0.6,0.2,0.8,0.5l3.9,7.2c0.1,0.1,0.3,0.2,0.4,0.1l0.1-0.1l3.9-7.2   c0.2-0.3,0.5-0.5,0.8-0.5h4.5c0.5,0,0.9,0.4,0.9,0.9v10.5c0,0.5-0.4,0.9-0.9,0.9l0,0h-1.8c-0.5,0-0.9-0.4-0.9-0.9l0,0l0,0l0.1-7.4   c0-0.2-0.1-0.3-0.3-0.3c-0.1,0-0.2,0.1-0.3,0.1l-4.6,8c-0.2,0.3-0.5,0.4-0.8,0.4H72c-0.3,0-0.6-0.2-0.8-0.5l-4.5-8   c-0.1-0.1-0.3-0.2-0.4-0.1s-0.1,0.1-0.1,0.3l0.1,7.4c0,0.5-0.4,0.9-0.9,0.9l0,0h-1.8c-0.5,0-0.9-0.4-0.9-0.9l0,0V19   C62.8,18.5,63.1,18.1,63.6,18.1z"/>
	<path class="st0" d="M98.2,27.5c1,0,1.1,0,1.5-0.1c0.9-0.3,1.1-0.9,1.1-3c0-2.6-0.4-3.1-2.6-3.1h-6c-0.2,0-0.3,0.1-0.3,0.3v5.7   c0,0.2,0.1,0.3,0.3,0.3L98.2,27.5L98.2,27.5z M88.3,19c0-0.5,0.4-0.9,0.9-0.9h9.7c2.6,0,3.8,0.3,4.6,1.1c0.7,0.7,0.9,1.4,1.1,3   c0,0.6,0.1,1.4,0.1,2c0,1-0.1,2.1-0.2,3.1c-0.2,1.5-1.2,2.6-2.6,2.9c-0.7,0.1-1.3,0.2-2.6,0.2H89.1c-0.5,0-0.9-0.4-0.9-0.9l0,0l0,0   L88.3,19z"/>
	<path class="st0" d="M123,19v1c0,0.5-0.4,0.9-0.9,0.9l0,0h-9.2c-0.2,0-0.3,0.1-0.3,0.3v1.5c0,0.2,0.1,0.3,0.3,0.3h8.6   c0.5,0,0.9,0.4,0.9,0.9v0.6c0,0.5-0.4,0.9-0.9,0.9h-8.6c-0.2,0-0.3,0.1-0.3,0.3v1.6c0,0.2,0.1,0.3,0.3,0.3h9.3   c0.5,0,0.9,0.4,0.9,0.9l0,0l0,0v1c0,0.5-0.4,0.9-0.9,0.9l0,0h-12.4c-0.5,0-0.9-0.4-0.9-0.9l0,0V19c0-0.5,0.4-0.9,0.9-0.9h12.3   C122.6,18.1,123,18.5,123,19z"/>
	<path class="st0" d="M138.1,27.7c0.8,0,0.9,0,1.1-0.1c0.4-0.1,0.6-0.5,0.6-1s-0.2-0.9-0.6-1c-0.2-0.1-0.4-0.1-1.2-0.1h-6.3   c-0.2,0-0.3,0.1-0.3,0.3l0,0v1.6c0,0.2,0.1,0.3,0.3,0.3l0,0L138.1,27.7L138.1,27.7z M137.7,23c0.7,0,1,0,1.2-0.1   c0.5-0.4,0.6-1,0.3-1.6c-0.1-0.2-0.3-0.3-0.4-0.4c-0.2-0.1-0.4-0.1-1.1-0.1h-5.9c-0.2,0-0.3,0.1-0.3,0.3v1.6c0,0.2,0.1,0.3,0.3,0.3   l0,0L137.7,23L137.7,23z M127.8,19c0-0.5,0.4-0.9,0.9-0.9h10.1c1.4,0,2.2,0.1,2.8,0.4c1,0.5,1.4,1.3,1.4,2.9s-0.5,2.4-1.7,2.6   c1.7,0.3,2.2,1,2.2,2.8c0,1.5-0.4,2.5-1.4,3c-0.6,0.3-1.4,0.4-2.8,0.4h-10.7c-0.5,0-0.9-0.4-0.9-0.9L127.8,19z"/>
	<path class="st0" d="M56.2,24.2c1.4-0.4,1.8-0.9,1.8-2.7c0-2.9-1-3.5-6.8-3.5c-1.5,0-2.7,0-3.5,0.1c-1.6,0.1-2.5,0.4-3.1,0.9   c-0.5,0.5-0.7,0.9-0.8,2.2c0,0.5,0.3,0.9,0.8,0.9l0,0h1.9c0.4,0,0.6-0.3,0.7-0.6l0,0c0-0.4,0.3-0.7,0.7-0.8   c0.4-0.2,0.4-0.2,3.1-0.2c2.5,0.1,2.5,0.1,3,0.2c0.4,0.2,0.7,0.6,0.6,1c0,0.5-0.2,0.8-0.5,1c-0.2,0.1-0.9,0.2-1.7,0.2h-2   c-0.5,0-0.9,0.4-0.9,0.9l0,0v0.5c0,0.5,0.4,0.9,0.9,0.9l0,0h1.9c0.8,0,1.5,0.1,1.7,0.2c0.3,0.2,0.5,0.5,0.5,1c0,0.4-0.2,0.9-0.6,1   c-0.4,0.2-0.4,0.2-3,0.2s-2.6,0-3-0.2c-0.4-0.1-0.7-0.5-0.7-0.9l0,0c0-0.3-0.3-0.6-0.7-0.6h-1.8c-0.5,0-0.9,0.4-0.9,0.9l0,0   c0,0,0,0,0,0.1c0.1,1.3,0.3,1.7,0.8,2.2c0.6,0.5,1.5,0.8,3.1,0.9c0.8,0.1,1.9,0.1,3.5,0.1c5.8,0,6.8-0.5,6.8-3.4   C58,25.1,57.6,24.6,56.2,24.2z"/>
	<path class="st0" d="M11.3,17c-0.9,0-1.5-0.7-1.5-1.6l0,0c0-0.9,0.7-1.5,1.5-1.6h8.1c0.9,0,1.6,0.7,1.6,1.6l0,0l0,0   c0,0.9,0.7,1.5,1.5,1.5h11.3c0.9,0,1.6,0.7,1.6,1.6l0,0c0,0.9-0.7,1.6-1.6,1.6H19.4c-0.9,0-1.6-0.7-1.6-1.6l0,0   c0-0.9-0.7-1.5-1.5-1.5H11.3z"/>
	<path class="st0" d="M1.7,32.6c-0.9,0-1.6,0.7-1.6,1.6l0,0c0,0.9,0.8,1.5,1.6,1.5h17.7c0.9,0,1.6-0.7,1.6-1.6l0,0l0,0   c0-0.9,0.7-1.6,1.6-1.6l0,0h11.3c0.9,0,1.6-0.6,1.6-1.5s-0.6-1.6-1.5-1.6l0,0h-6.6c-0.9,0-1.6-0.6-1.6-1.5s0.6-1.6,1.5-1.6l0,0H29   c0.9,0,1.6-0.6,1.6-1.5s-0.6-1.6-1.5-1.6H14.6c-0.9,0-1.6,0.6-1.6,1.5s0.6,1.6,1.5,1.6H21c0.9,0,1.6,0.7,1.6,1.5   c0,0.9-0.6,1.6-1.5,1.6l0,0h-1.7c-0.9,0-1.6,0.7-1.6,1.6l0,0l0,0c0,0.9-0.7,1.6-1.6,1.6l0,0l0,0H1.7z"/>
	<circle class="st1" cx="4.9" cy="15.5" r="1.6"/>
</g>
</svg>