<svg viewBox="0 0 64 64" xmlns="http://www.w3.org/2000/svg" height="24" width="24"><g fill="#2a5f9e"><path d="M22 60.3V46.5l-10.3 7.6c2.9 2.7 6.4 4.8 10.3 6.2M42 60.3c3.9-1.4 7.4-3.5 10.3-6.2L42 46.4v13.9M3.7 42c.3 1 .7 1.9 1.2 2.9L8.8 42H3.7M55.2 42l3.9 2.9 1.2-2.9h-5.1"/></g><g fill="#fff"><path d="M23.5 38H2.6l1.1 4h5.1l-3.9 2.9c.8 1.7 1.7 3.2 2.8 4.7L18 42h4v2l-11.7 8.6 1.4 1.4L22 46.5v13.8c1.3.5 2.6.8 4 1.1V38h-2.5M61.4 38H38v23.4l4-1.1V46.5L52.3 54a38 38 0 0 0 3.8-4.2L45.4 42h6.8l6.1 4.5.8-1.6-3.9-2.9h5.1l1.1-4"/></g><g fill="#ed4c5c"><path d="m7.7 49.6 2.5 3.1L22 44.1v-2h-4L7.7 49.6M45.5 42l10.7 7.8 1.1-1.5.2-.2 1-1.6-6.3-4.5h-6.7"/></g><g fill="#2a5f9e"><path d="M42 3.7v13.8l10.3-7.6A29.9 29.9 0 0 0 42 3.7M22 3.7a29.9 29.9 0 0 0-10.3 6.2L22 17.6V3.7M60.3 22c-.3-1-.7-1.9-1.2-2.9L55.2 22h5.1M8.8 22l-3.9-2.9L3.7 22h5.1"/></g><g fill="#fff"><path d="M40.5 26h20.8l-1.1-4h-5.1l3.9-2.9c-.8-1.7-1.7-3.2-2.8-4.7L46 22h-4v-2l11.7-8.6-1.4-1.4L42 17.5V3.7c-1.3-.5-2.6-.8-4-1.1V26h2.5M2.6 26H26V2.6l-4 1.1v13.8L11.7 10a38 38 0 0 0-3.8 4.2L18.6 22h-6.8l-6.1-4.5a12 12 0 0 0-.8 1.6L8.8 22H3.7l-1.1 4"/></g><g fill="#ed4c5c"><path d="m56.3 14.4-2.5-3.1L42 19.9v2h4l10.3-7.5M18.5 22 7.9 14.2l-1.1 1.5-.2.2-1 1.6 6.1 4.5h6.8"/><path d="M61.4 26H38V2.6a29 29 0 0 0-12 0V26H2.6a29 29 0 0 0 0 12H26v23.4a29 29 0 0 0 12 0V38h23.4a29 29 0 0 0 0-12"/></g></svg>