<?xml version="1.0" encoding="utf-8"?>
<!-- Generator: Adobe Illustrator 24.1.0, SVG Export Plug-In . SVG Version: 6.00 Build 0)  -->
<svg version="1.1" id="Layer_1" xmlns="http://www.w3.org/2000/svg" xmlns:xlink="http://www.w3.org/1999/xlink" x="0px" y="0px"
	 viewBox="0 0 512 512" style="enable-background:new 0 0 512 512;" xml:space="preserve">
<style type="text/css">
	.st0{fill:#FFFFFF;}
</style>
<path class="st0" d="M316,260c-5.5,0-10,4.5-10,10s4.5,10,10,10s10-4.5,10-10S321.5,260,316,260z"/>
<path class="st0" d="M102.2,369.8l-100,126c-2.4,3-2.8,7.1-1.2,10.6c1.7,3.5,5.2,5.7,9,5.7h492c3.8,0,7.3-2.2,9-5.7
	c1.7-3.5,1.2-7.6-1.2-10.6l-100-126c-1.9-2.4-4.8-3.8-7.8-3.8h-87.6l74.8-117.3c17.5-26.3,26.8-57,26.8-88.7C416,71.8,344.2,0,256,0
	S96,71.8,96,160c0,31.7,9.3,62.4,26.8,88.7L197.6,366H110C106.9,366,104.1,367.4,102.2,369.8z M64.8,449h60.5l-34.1,43H30.7
	L64.8,449z M210.4,386l27.4,43h-71.1l34.1-43H210.4z M301.7,386h9.5l34.1,43h-71.1L301.7,386z M361.2,449l34.1,43H116.7l34.1-43
	H361.2z M420.8,492l-34.1-43h60.5l34.1,43H420.8z M431.3,429h-60.5l-34.1-43h60.5L431.3,429z M139.5,237.7
	c-15.4-23-23.5-49.9-23.5-77.7c0-77.2,62.8-140,140-140s140,62.8,140,140c0,27.8-8.1,54.7-23.5,77.7c0,0.1-0.1,0.1-0.1,0.2
	c-6.6,10.3-111.3,174.6-116.4,182.5c-12.7-20-103.4-162.2-116.4-182.5C139.6,237.8,139.5,237.7,139.5,237.7z M175.3,386l-34.1,43
	H80.7l34.1-43H175.3z"/>
<path class="st0" d="M256,260c54.9,0,100-44.5,100-100c0-55.1-44.9-100-100-100s-100,44.9-100,100C156,215.6,201.1,260,256,260z
	 M256,80c44.1,0,80,35.9,80,80c0,44.5-36.2,80-80,80c-43.8,0-80-35.5-80-80C176,115.9,211.9,80,256,80z"/>
<path class="st0" d="M298.1,294.1c-4.7-2.9-10.9-1.3-13.7,3.4l-37,61.3c-2.9,4.7-1.3,10.9,3.4,13.7c4.8,2.9,10.9,1.3,13.7-3.4
	l37-61.3C304.4,303.1,302.9,297,298.1,294.1z"/>
</svg>
