<?xml version="1.0" encoding="utf-8"?>
<!-- Generator: Adobe Illustrator 24.1.0, SVG Export Plug-In . SVG Version: 6.00 Build 0)  -->
<svg version="1.1" id="Layer_1" xmlns="http://www.w3.org/2000/svg" xmlns:xlink="http://www.w3.org/1999/xlink" x="0px" y="0px"
	 viewBox="0 0 512 512" style="enable-background:new 0 0 512 512;" xml:space="preserve">
<style type="text/css">
	.st0{fill:#FFFFFF;}
</style>
<g>
	<g>
		<path class="st0" d="M469.3,64H42.7C19.1,64,0,83.1,0,106.7v298.7C0,428.9,19.1,448,42.7,448h426.7c23.5,0,42.7-19.1,42.7-42.7
			V106.7C512,83.1,492.9,64,469.3,64z M42.7,85.3h426.7c1.6,0,3,0.6,4.4,0.9C436.8,120,314.3,232.1,271.5,270.7
			c-3.4,3-8.8,6.6-15.5,6.6s-12.1-3.6-15.5-6.6C197.7,232.1,75.2,120,38.2,86.2C39.7,85.9,41.1,85.3,42.7,85.3z M21.3,405.3V106.7
			c0-2.1,0.6-4,1.2-5.9c28.3,25.9,113.7,104.1,169.2,154.5C136.4,302.7,51,383.7,22.5,410.9C22,409.1,21.3,407.3,21.3,405.3z
			 M469.3,426.7H42.7c-1.7,0-3.2-0.6-4.8-1c29.4-28.1,115.5-109.6,169.7-156c7.1,6.4,13.5,12.3,18.6,16.9
			c8.8,7.9,19.1,12.1,29.8,12.1s21-4.2,29.8-12.1c5.1-4.6,11.6-10.4,18.6-16.9c54.3,46.4,140.3,127.9,169.7,156
			C472.6,426.1,471,426.7,469.3,426.7z M490.7,405.3c0,2-0.6,3.7-1.1,5.6c-28.5-27.2-114-108.2-169.2-155.7
			c55.4-50.4,140.9-128.6,169.2-154.5c0.6,1.9,1.2,3.8,1.2,5.9V405.3z"/>
	</g>
</g>
</svg>
