<?xml version="1.0" encoding="utf-8"?>
<!-- Generator: Adobe Illustrator 24.1.0, SVG Export Plug-In . SVG Version: 6.00 Build 0)  -->
<svg version="1.1" id="Layer_1" xmlns="http://www.w3.org/2000/svg" xmlns:xlink="http://www.w3.org/1999/xlink" x="0px" y="0px"
	 viewBox="0 0 512 512" style="enable-background:new 0 0 512 512;" xml:space="preserve">
<style type="text/css">
	.st0{fill:#FFFFFF;}
</style>
<path class="st0" d="M58.7,464c-29.2,0-53-23.8-53-53V144.3c0-29.2,23.8-52.9,53-52.9h128c5.7,0,10.3,4.6,10.3,10.3
	s-4.6,10.3-10.3,10.3h-128c-17.8,0-32.4,14.5-32.4,32.4V411c0,17.8,14.5,32.4,32.4,32.4h394.7c17.8,0,32.4-14.5,32.4-32.4V144.3
	c0-17.8-14.5-32.4-32.4-32.4h-128c-5.7,0-10.3-4.6-10.3-10.3s4.6-10.3,10.3-10.3h128c29.2,0,53,23.8,53,53V411
	c-0.1,29.2-23.9,53-53.1,53H58.7z"/>
<path class="st0" d="M208,154.6c-17.4,0-31.6-14.2-31.6-31.6V80.3c0-17.4,14.2-31.6,31.6-31.6h96c17.4,0,31.6,14.2,31.6,31.6V123
	c0,17.4-14.2,31.6-31.6,31.6H208z M208,69.3c-6,0-11,4.9-11,11V123c0,6,4.9,11,11,11h96c6,0,11-4.9,11-11V80.3c0-6-4.9-11-11-11H208
	z"/>
<path class="st0" d="M160,293.3c-26.3,0-47.6-21.4-47.6-47.6c0-26.3,21.4-47.6,47.6-47.6s47.6,21.4,47.6,47.6
	C207.6,272,186.3,293.3,160,293.3z M160,218.6c-14.9,0-27,12.1-27,27s12.1,27,27,27s27-12.1,27-27C187,230.7,174.9,218.6,160,218.6z
	"/>
<path class="st0" d="M240,400c-5.7,0-10.3-4.6-10.3-10.3V379c0-17.8-14.5-32.4-32.4-32.4h-74.7c-17.8,0-32.4,14.5-32.4,32.4v10.7
	c0,5.7-4.6,10.3-10.3,10.3s-10.3-4.6-10.3-10.3V379c0-29.2,23.8-53,53-53h74.7c29.2,0,53,23.8,53,53v10.7
	C250.3,395.4,245.7,400,240,400z"/>
<path class="st0" d="M314.7,229.3c-5.7,0-10.3-4.6-10.3-10.3s4.6-10.3,10.3-10.3H432c5.7,0,10.3,4.6,10.3,10.3s-4.6,10.3-10.3,10.3
	H314.7z"/>
<path class="st0" d="M314.7,314.6c-5.7,0-10.3-4.6-10.3-10.3S309,294,314.7,294H432c5.7,0,10.3,4.6,10.3,10.3s-4.6,10.3-10.3,10.3
	L314.7,314.6L314.7,314.6z"/>
<path class="st0" d="M314.7,400c-5.7,0-10.3-4.6-10.3-10.3s4.6-10.3,10.3-10.3H432c5.7,0,10.3,4.6,10.3,10.3S437.7,400,432,400
	H314.7z"/>
</svg>
